<?xml version="1.0" encoding="UTF-8" standalone="no"?>
<!-- Created with Inkscape (http://www.inkscape.org/) -->

<svg
   version="1.1"
   id="svg2"
   xml:space="preserve"
   width="314.66666"
   height="400"
   viewBox="0 0 314.66666 400"
   sodipodi:docname="swiglu.svg"
   inkscape:version="1.1.2 (0a00cf5339, 2022-02-04)"
   xmlns:inkscape="http://www.inkscape.org/namespaces/inkscape"
   xmlns:sodipodi="http://sodipodi.sourceforge.net/DTD/sodipodi-0.dtd"
   xmlns="http://www.w3.org/2000/svg"
   xmlns:svg="http://www.w3.org/2000/svg"><defs
     id="defs6" /><sodipodi:namedview
     id="namedview4"
     pagecolor="#ffffff"
     bordercolor="#666666"
     borderopacity="1.0"
     inkscape:pageshadow="2"
     inkscape:pageopacity="0.0"
     inkscape:pagecheckerboard="0"
     showgrid="false"
     inkscape:zoom="1.8175"
     inkscape:cx="35.763411"
     inkscape:cy="200.2751"
     inkscape:window-width="1920"
     inkscape:window-height="1025"
     inkscape:window-x="0"
     inkscape:window-y="27"
     inkscape:window-maximized="1"
     inkscape:current-layer="g8" /><g
     id="g8"
     inkscape:groupmode="layer"
     inkscape:label="ink_ext_XXXXXX"
     transform="matrix(1.3333333,0,0,-1.3333333,0,400)"><g
       id="g10"
       transform="scale(0.1)"><path
         d="m 1856.66,949.59 -566.92,765.34"
         style="fill:none;stroke:#000000;stroke-width:28.346;stroke-linecap:butt;stroke-linejoin:miter;stroke-miterlimit:10;stroke-dasharray:none;stroke-opacity:1"
         id="path12" /><path
         d="m 1289.74,1714.93 67.71,-55.68 -29.74,4.43 -4.43,-29.73"
         style="fill:#000000;fill-opacity:1;fill-rule:evenodd;stroke:none"
         id="path14" /><path
         d="m 1289.74,1714.93 67.71,-55.68 -29.74,4.43 -4.43,-29.73 z"
         style="fill:none;stroke:#000000;stroke-width:28.346;stroke-linecap:butt;stroke-linejoin:miter;stroke-miterlimit:10;stroke-dasharray:none;stroke-opacity:1"
         id="path16" /><path
         d="m 807.859,14.1719 h 708.652 v 141.73 H 807.859 Z"
         style="fill:#ffff00;fill-opacity:1;fill-rule:evenodd;stroke:none"
         id="path18" /><path
         d="m 807.859,14.1719 h 708.652 v 141.73 H 807.859 Z"
         style="fill:none;stroke:#000000;stroke-width:28.346;stroke-linecap:butt;stroke-linejoin:miter;stroke-miterlimit:10;stroke-dasharray:none;stroke-opacity:1"
         id="path20" /><path
         d="M 807.859,155.902 V 14.1719"
         style="fill:none;stroke:#000000;stroke-width:28.346;stroke-linecap:butt;stroke-linejoin:miter;stroke-miterlimit:10;stroke-dasharray:none;stroke-opacity:1"
         id="path22" /><path
         d="M 949.59,155.902 V 14.1719"
         style="fill:none;stroke:#000000;stroke-width:28.346;stroke-linecap:butt;stroke-linejoin:miter;stroke-miterlimit:10;stroke-dasharray:none;stroke-opacity:1"
         id="path24" /><path
         d="M 1092.03,155.902 V 14.1719"
         style="fill:none;stroke:#000000;stroke-width:28.346;stroke-linecap:butt;stroke-linejoin:miter;stroke-miterlimit:10;stroke-dasharray:none;stroke-opacity:1"
         id="path26" /><path
         d="M 1375.49,155.902 V 14.1719"
         style="fill:none;stroke:#000000;stroke-width:28.346;stroke-linecap:butt;stroke-linejoin:miter;stroke-miterlimit:10;stroke-dasharray:none;stroke-opacity:1"
         id="path28" /><path
         d="m 949.59,14.1719 h 142.441 v 141.73 H 949.59 Z"
         style="fill:#00ff00;fill-opacity:1;fill-rule:evenodd;stroke:none"
         id="path30" /><path
         d="m 949.59,14.1719 h 142.441 v 141.73 H 949.59 Z"
         style="fill:none;stroke:#000000;stroke-width:28.346;stroke-linecap:butt;stroke-linejoin:miter;stroke-miterlimit:10;stroke-dasharray:none;stroke-opacity:1"
         id="path32" /><path
         d="m 1233.05,14.1719 h 142.438 v 141.73 H 1233.05 Z"
         style="fill:#aaaaff;fill-opacity:1;fill-rule:evenodd;stroke:none"
         id="path34" /><path
         d="m 1233.05,14.1719 h 142.438 v 141.73 H 1233.05 Z"
         style="fill:none;stroke:#000000;stroke-width:28.346;stroke-linecap:butt;stroke-linejoin:miter;stroke-miterlimit:10;stroke-dasharray:none;stroke-opacity:1"
         id="path36" /><path
         d="m 819.199,2843.11 h 708.652 v 141.73 H 819.199 Z"
         style="fill:#8888ff;fill-opacity:1;fill-rule:evenodd;stroke:none"
         id="path38" /><path
         d="m 819.199,2843.11 h 708.652 v 141.73 H 819.199 Z"
         style="fill:none;stroke:#000000;stroke-width:28.346;stroke-linecap:butt;stroke-linejoin:miter;stroke-miterlimit:10;stroke-dasharray:none;stroke-opacity:1"
         id="path40" /><path
         d="M 819.199,2984.84 V 2843.11"
         style="fill:none;stroke:#000000;stroke-width:28.346;stroke-linecap:butt;stroke-linejoin:miter;stroke-miterlimit:10;stroke-dasharray:none;stroke-opacity:1"
         id="path42" /><path
         d="M 960.93,2984.84 V 2843.11"
         style="fill:none;stroke:#000000;stroke-width:28.346;stroke-linecap:butt;stroke-linejoin:miter;stroke-miterlimit:10;stroke-dasharray:none;stroke-opacity:1"
         id="path44" /><path
         d="M 1103.37,2984.84 V 2843.11"
         style="fill:none;stroke:#000000;stroke-width:28.346;stroke-linecap:butt;stroke-linejoin:miter;stroke-miterlimit:10;stroke-dasharray:none;stroke-opacity:1"
         id="path46" /><path
         d="M 1386.83,2984.84 V 2843.11"
         style="fill:none;stroke:#000000;stroke-width:28.346;stroke-linecap:butt;stroke-linejoin:miter;stroke-miterlimit:10;stroke-dasharray:none;stroke-opacity:1"
         id="path48" /><path
         d="m 960.93,2843.11 h 142.438 v 141.73 H 960.93 Z"
         style="fill:#0000cc;fill-opacity:1;fill-rule:evenodd;stroke:none"
         id="path50" /><path
         d="m 960.93,2843.11 h 142.438 v 141.73 H 960.93 Z"
         style="fill:none;stroke:#000000;stroke-width:28.346;stroke-linecap:butt;stroke-linejoin:miter;stroke-miterlimit:10;stroke-dasharray:none;stroke-opacity:1"
         id="path52" /><path
         d="m 1244.39,2843.11 h 142.438 v 141.73 H 1244.39 Z"
         style="fill:#e8e8ff;fill-opacity:1;fill-rule:evenodd;stroke:none"
         id="path54" /><path
         d="m 1244.39,2843.11 h 142.438 v 141.73 H 1244.39 Z"
         style="fill:none;stroke:#000000;stroke-width:28.346;stroke-linecap:butt;stroke-linejoin:miter;stroke-miterlimit:10;stroke-dasharray:none;stroke-opacity:1"
         id="path56" /><path
         d="m 1445.64,566.922 h 822.035 V 963.766 H 1445.64 Z"
         style="fill:#f0ffe0;fill-opacity:1;fill-rule:evenodd;stroke:none"
         id="path58" /><path
         d="m 1374.78,637.785 h 963.766 V 892.898 H 1374.78 Z"
         style="fill:#f0ffe0;fill-opacity:1;fill-rule:evenodd;stroke:none"
         id="path60" /><path
         d="m 1445.64,892.898 h -70.86 c 0,39.137 31.73,70.868 70.86,70.868"
         style="fill:#f0ffe0;fill-opacity:1;fill-rule:nonzero;stroke:none"
         id="path62" /><path
         d="m 1374.78,892.898 c 0,39.137 31.73,70.868 70.86,70.868"
         style="fill:none;stroke:#000000;stroke-width:28.346;stroke-linecap:butt;stroke-linejoin:round;stroke-miterlimit:10;stroke-dasharray:none;stroke-opacity:1"
         id="path64" /><path
         d="M 1374.78,892.898 V 637.785"
         style="fill:none;stroke:#000000;stroke-width:28.346;stroke-linecap:butt;stroke-linejoin:round;stroke-miterlimit:10;stroke-dasharray:none;stroke-opacity:1"
         id="path66" /><path
         d="m 1445.64,637.785 v -70.863 c -39.13,0 -70.86,31.726 -70.86,70.863"
         style="fill:#f0ffe0;fill-opacity:1;fill-rule:nonzero;stroke:none"
         id="path68" /><path
         d="m 1445.64,566.922 c -39.13,0 -70.86,31.726 -70.86,70.863"
         style="fill:none;stroke:#000000;stroke-width:28.346;stroke-linecap:butt;stroke-linejoin:round;stroke-miterlimit:10;stroke-dasharray:none;stroke-opacity:1"
         id="path70" /><path
         d="m 1445.64,566.922 h 822.04"
         style="fill:none;stroke:#000000;stroke-width:28.346;stroke-linecap:butt;stroke-linejoin:round;stroke-miterlimit:10;stroke-dasharray:none;stroke-opacity:1"
         id="path72" /><path
         d="m 2267.68,637.785 h 70.87 c 0,-39.137 -31.73,-70.863 -70.87,-70.863"
         style="fill:#f0ffe0;fill-opacity:1;fill-rule:nonzero;stroke:none"
         id="path74" /><path
         d="m 2338.55,637.785 c 0,-39.137 -31.73,-70.863 -70.87,-70.863"
         style="fill:none;stroke:#000000;stroke-width:28.346;stroke-linecap:butt;stroke-linejoin:round;stroke-miterlimit:10;stroke-dasharray:none;stroke-opacity:1"
         id="path76" /><path
         d="M 2338.55,637.785 V 892.898"
         style="fill:none;stroke:#000000;stroke-width:28.346;stroke-linecap:butt;stroke-linejoin:round;stroke-miterlimit:10;stroke-dasharray:none;stroke-opacity:1"
         id="path78" /><path
         d="m 2267.68,892.898 v 70.868 c 39.14,0 70.87,-31.731 70.87,-70.868"
         style="fill:#f0ffe0;fill-opacity:1;fill-rule:nonzero;stroke:none"
         id="path80" /><path
         d="m 2267.68,963.766 c 39.14,0 70.87,-31.731 70.87,-70.868"
         style="fill:none;stroke:#000000;stroke-width:28.346;stroke-linecap:butt;stroke-linejoin:round;stroke-miterlimit:10;stroke-dasharray:none;stroke-opacity:1"
         id="path82" /><path
         d="M 2267.68,963.766 H 1445.64"
         style="fill:none;stroke:#000000;stroke-width:28.346;stroke-linecap:butt;stroke-linejoin:round;stroke-miterlimit:10;stroke-dasharray:none;stroke-opacity:1"
         id="path84" /><path
         d="m 1430.08,865.598 h 27.06 V 687.25 h 97.49 v -21.117 h -124.55 v 199.465"
         style="fill:#000000;fill-opacity:1;fill-rule:nonzero;stroke:none"
         id="path86" /><path
         d="m 1584.77,816.316 h 24.64 V 666.133 h -24.64 v 150.183 m 0,58.664 h 24.64 v -30.503 h -24.64 v 30.503"
         style="fill:#000000;fill-opacity:1;fill-rule:nonzero;stroke:none"
         id="path88" /><path
         d="m 1787.46,758.348 v -92.215 h -24.68 v 91.406 c 0,14.152 -2.77,24.75 -8.32,31.789 -5.55,7.043 -13.86,10.563 -24.93,10.563 -13.33,0 -23.84,-4.243 -31.54,-12.723 -7.67,-8.484 -11.51,-20.047 -11.51,-34.688 v -86.347 h -24.78 v 150.183 h 24.78 v -21.121 c 5.89,8.657 12.83,15.121 20.82,19.399 8.02,4.277 17.26,6.414 27.73,6.414 17.26,0 30.31,-5.301 39.16,-15.91 8.85,-10.586 13.27,-26.168 13.27,-46.75"
         style="fill:#000000;fill-opacity:1;fill-rule:nonzero;stroke:none"
         id="path90" /><path
         d="m 1968.05,748.262 v -11.731 h -113.41 c 1.07,-17.578 6.18,-30.972 15.33,-40.187 9.16,-9.192 21.94,-13.785 38.31,-13.785 9.46,0 18.64,1.171 27.54,3.519 8.9,2.348 17.72,5.867 26.47,10.559 v -23.465 c -8.84,-3.813 -17.91,-6.723 -27.2,-8.727 -9.29,-2.004 -18.73,-3.007 -28.31,-3.007 -23.96,0 -42.92,7.05 -56.9,21.156 -13.99,14.129 -20.98,33.219 -20.98,57.273 0,24.883 6.64,44.621 19.91,59.215 13.27,14.617 31.17,21.926 53.68,21.926 20.19,0 36.17,-6.524 47.92,-19.578 11.76,-13.028 17.64,-30.75 17.64,-53.168 m -24.64,7.043 c -0.17,13.566 -3.95,24.383 -11.33,32.449 -7.38,8.09 -17.15,12.137 -29.3,12.137 -13.76,0 -24.78,-3.911 -33.07,-11.735 -8.26,-7.797 -13.01,-18.797 -14.26,-33 l 87.96,0.149"
         style="fill:#000000;fill-opacity:1;fill-rule:nonzero;stroke:none"
         id="path92" /><path
         d="m 2079.92,741.223 c -19.95,0 -33.77,-2.285 -41.47,-6.856 -7.68,-4.547 -11.51,-12.308 -11.51,-23.285 0,-8.75 2.88,-15.691 8.65,-20.824 5.77,-5.133 13.62,-7.699 23.54,-7.699 13.66,0 24.63,4.828 32.89,14.48 8.29,9.656 12.43,22.504 12.43,38.539 v 5.645 h -24.53 m 49.21,9.902 v -84.992 h -24.68 v 21.117 c -5.62,-8.824 -12.64,-15.34 -21.05,-19.543 -8.4,-4.18 -18.69,-6.269 -30.83,-6.269 -15.38,0 -27.6,4.3 -36.67,12.906 -9.07,8.629 -13.6,20.179 -13.6,34.648 0,16.867 5.65,29.578 16.94,38.133 11.31,8.582 28.18,12.871 50.6,12.871 h 34.61 v 2.641 c 0,11.855 -3.74,21.023 -11.22,27.5 -7.46,6.5 -17.93,9.754 -31.42,9.754 -8.58,0 -16.94,-0.981 -25.08,-2.934 -8.12,-1.957 -15.93,-4.891 -23.43,-8.801 v 23.465 c 9.02,3.129 17.77,5.477 26.25,7.043 8.51,1.563 16.78,2.344 24.83,2.344 21.73,0 37.94,-5.781 48.65,-17.34 10.73,-11.539 16.1,-29.055 16.1,-52.543"
         style="fill:#000000;fill-opacity:1;fill-rule:nonzero;stroke:none"
         id="path94" /><path
         d="m 2270.03,792.852 c -2.76,2.418 -5.78,4.191 -9.06,5.316 -3.25,1.148 -6.84,1.723 -10.78,1.723 -13.96,0 -24.68,-4.598 -32.15,-13.789 -7.46,-9.164 -11.19,-22.329 -11.19,-39.489 v -80.48 h -24.79 v 150.183 h 24.79 v -21.121 c 5.18,8.727 11.93,15.207 20.24,19.434 8.34,4.254 18.44,6.379 30.32,6.379 1.72,0 3.6,-0.195 5.65,-0.586 2.05,-0.391 4.33,-0.977 6.82,-1.758 l 0.15,-25.812"
         style="fill:#000000;fill-opacity:1;fill-rule:nonzero;stroke:none"
         id="path96" /><path
         d="m 85.0391,566.922 h 822.035 V 963.766 H 85.0391 Z"
         style="fill:#f0ffe0;fill-opacity:1;fill-rule:evenodd;stroke:none"
         id="path98" /><path
         d="m 14.1719,637.785 h 963.766 V 892.898 H 14.1719 Z"
         style="fill:#f0ffe0;fill-opacity:1;fill-rule:evenodd;stroke:none"
         id="path100" /><path
         d="M 85.0391,892.898 H 14.1719 c 0,39.137 31.7304,70.868 70.8672,70.868"
         style="fill:#f0ffe0;fill-opacity:1;fill-rule:nonzero;stroke:none"
         id="path102" /><path
         d="m 14.1719,892.898 c 0,39.137 31.7304,70.868 70.8672,70.868"
         style="fill:none;stroke:#000000;stroke-width:28.346;stroke-linecap:butt;stroke-linejoin:round;stroke-miterlimit:10;stroke-dasharray:none;stroke-opacity:1"
         id="path104" /><path
         d="M 14.1719,892.898 V 637.785"
         style="fill:none;stroke:#000000;stroke-width:28.346;stroke-linecap:butt;stroke-linejoin:round;stroke-miterlimit:10;stroke-dasharray:none;stroke-opacity:1"
         id="path106" /><path
         d="m 85.0391,637.785 v -70.863 c -39.1368,0 -70.8672,31.726 -70.8672,70.863"
         style="fill:#f0ffe0;fill-opacity:1;fill-rule:nonzero;stroke:none"
         id="path108" /><path
         d="m 85.0391,566.922 c -39.1368,0 -70.8672,31.726 -70.8672,70.863"
         style="fill:none;stroke:#000000;stroke-width:28.346;stroke-linecap:butt;stroke-linejoin:round;stroke-miterlimit:10;stroke-dasharray:none;stroke-opacity:1"
         id="path110" /><path
         d="M 85.0391,566.922 H 907.074"
         style="fill:none;stroke:#000000;stroke-width:28.346;stroke-linecap:butt;stroke-linejoin:round;stroke-miterlimit:10;stroke-dasharray:none;stroke-opacity:1"
         id="path112" /><path
         d="m 907.074,637.785 h 70.864 c 0,-39.137 -31.727,-70.863 -70.864,-70.863"
         style="fill:#f0ffe0;fill-opacity:1;fill-rule:nonzero;stroke:none"
         id="path114" /><path
         d="m 977.938,637.785 c 0,-39.137 -31.727,-70.863 -70.864,-70.863"
         style="fill:none;stroke:#000000;stroke-width:28.346;stroke-linecap:butt;stroke-linejoin:round;stroke-miterlimit:10;stroke-dasharray:none;stroke-opacity:1"
         id="path116" /><path
         d="M 977.938,637.785 V 892.898"
         style="fill:none;stroke:#000000;stroke-width:28.346;stroke-linecap:butt;stroke-linejoin:round;stroke-miterlimit:10;stroke-dasharray:none;stroke-opacity:1"
         id="path118" /><path
         d="m 907.074,892.898 v 70.868 c 39.137,0 70.864,-31.731 70.864,-70.868"
         style="fill:#f0ffe0;fill-opacity:1;fill-rule:nonzero;stroke:none"
         id="path120" /><path
         d="m 907.074,963.766 c 39.137,0 70.864,-31.731 70.864,-70.868"
         style="fill:none;stroke:#000000;stroke-width:28.346;stroke-linecap:butt;stroke-linejoin:round;stroke-miterlimit:10;stroke-dasharray:none;stroke-opacity:1"
         id="path122" /><path
         d="M 907.074,963.766 H 85.0391"
         style="fill:none;stroke:#000000;stroke-width:28.346;stroke-linecap:butt;stroke-linejoin:round;stroke-miterlimit:10;stroke-dasharray:none;stroke-opacity:1"
         id="path124" /><path
         d="M 69.4688,865.598 H 96.5273 V 687.25 H 194.023 V 666.133 H 69.4688 v 199.465"
         style="fill:#000000;fill-opacity:1;fill-rule:nonzero;stroke:none"
         id="path126" /><path
         d="m 224.16,816.316 h 24.641 V 666.133 H 224.16 v 150.183 m 0,58.664 h 24.641 V 844.477 H 224.16 v 30.503"
         style="fill:#000000;fill-opacity:1;fill-rule:nonzero;stroke:none"
         id="path128" /><path
         d="m 426.852,758.348 v -92.215 h -24.676 v 91.406 c 0,14.152 -2.778,24.75 -8.324,31.789 -5.551,7.043 -13.86,10.563 -24.934,10.563 -13.324,0 -23.832,-4.243 -31.535,-12.723 -7.672,-8.484 -11.512,-20.047 -11.512,-34.688 v -86.347 h -24.785 v 150.183 h 24.785 v -21.121 c 5.891,8.657 12.832,15.121 20.828,19.399 8.016,4.277 17.258,6.414 27.719,6.414 17.258,0 30.309,-5.301 39.16,-15.91 8.848,-10.586 13.274,-26.168 13.274,-46.75"
         style="fill:#000000;fill-opacity:1;fill-rule:nonzero;stroke:none"
         id="path130" /><path
         d="m 607.441,748.262 v -11.731 h -113.41 c 1.078,-17.578 6.184,-30.972 15.328,-40.187 9.168,-9.192 21.938,-13.785 38.317,-13.785 9.461,0 18.637,1.171 27.535,3.519 8.898,2.348 17.723,5.867 26.473,10.559 v -23.465 c -8.848,-3.813 -17.918,-6.723 -27.207,-8.727 -9.286,-2.004 -18.723,-3.007 -28.305,-3.007 -23.957,0 -42.926,7.05 -56.906,21.156 -13.981,14.129 -20.973,33.219 -20.973,57.273 0,24.883 6.637,44.621 19.91,59.215 13.274,14.617 31.164,21.926 53.68,21.926 20.191,0 36.164,-6.524 47.922,-19.578 11.758,-13.028 17.636,-30.75 17.636,-53.168 m -24.64,7.043 c -0.172,13.566 -3.946,24.383 -11.328,32.449 -7.383,8.09 -17.149,12.137 -29.297,12.137 -13.762,0 -24.785,-3.911 -33.074,-11.735 -8.262,-7.797 -13.016,-18.797 -14.262,-33 l 87.961,0.149"
         style="fill:#000000;fill-opacity:1;fill-rule:nonzero;stroke:none"
         id="path132" /><path
         d="m 719.313,741.223 c -19.946,0 -33.77,-2.285 -41.469,-6.856 -7.676,-4.547 -11.516,-12.308 -11.516,-23.285 0,-8.75 2.887,-15.691 8.652,-20.824 5.77,-5.133 13.618,-7.699 23.543,-7.699 13.665,0 24.625,4.828 32.887,14.48 8.289,9.656 12.43,22.504 12.43,38.539 v 5.645 h -24.527 m 49.207,9.902 v -84.992 h -24.68 v 21.117 c -5.621,-8.824 -12.637,-15.34 -21.043,-19.543 -8.41,-4.18 -18.688,-6.269 -30.84,-6.269 -15.375,0 -27.598,4.3 -36.664,12.906 -9.07,8.629 -13.605,20.179 -13.605,34.648 0,16.867 5.648,29.578 16.941,38.133 11.316,8.582 28.184,12.871 50.601,12.871 h 34.61 v 2.641 c 0,11.855 -3.738,21.023 -11.219,27.5 -7.453,6.5 -17.93,9.754 -31.422,9.754 -8.582,0 -16.941,-0.981 -25.082,-2.934 -8.113,-1.957 -15.922,-4.891 -23.429,-8.801 v 23.465 c 9.023,3.129 17.773,5.477 26.253,7.043 8.508,1.563 16.782,2.344 24.825,2.344 21.73,0 37.949,-5.781 48.656,-17.34 10.73,-11.539 16.098,-29.055 16.098,-52.543"
         style="fill:#000000;fill-opacity:1;fill-rule:nonzero;stroke:none"
         id="path134" /><path
         d="m 909.418,792.852 c -2.762,2.418 -5.781,4.191 -9.059,5.316 -3.25,1.148 -6.843,1.723 -10.777,1.723 -13.957,0 -24.676,-4.598 -32.156,-13.789 -7.457,-9.164 -11.184,-22.329 -11.184,-39.489 v -80.48 h -24.785 v 150.183 h 24.785 v -21.121 c 5.18,8.727 11.93,15.207 20.238,19.434 8.336,4.254 18.446,6.379 30.325,6.379 1.711,0 3.593,-0.195 5.644,-0.586 2.055,-0.391 4.328,-0.977 6.821,-1.758 l 0.148,-25.812"
         style="fill:#000000;fill-opacity:1;fill-rule:nonzero;stroke:none"
         id="path136" /><path
         d="m 1162.19,155.902 -609.444,368.5"
         style="fill:none;stroke:#000000;stroke-width:28.346;stroke-linecap:butt;stroke-linejoin:round;stroke-miterlimit:10;stroke-dasharray:none;stroke-opacity:1"
         id="path138" /><path
         d="m 552.746,524.402 83.77,-25.808 -29.192,-7.192 7.192,-29.195"
         style="fill:#000000;fill-opacity:1;fill-rule:evenodd;stroke:none"
         id="path140" /><path
         d="m 552.746,524.402 83.77,-25.808 -29.192,-7.192 7.192,-29.195 z"
         style="fill:none;stroke:#000000;stroke-width:28.346;stroke-linecap:butt;stroke-linejoin:miter;stroke-miterlimit:10;stroke-dasharray:none;stroke-opacity:1"
         id="path142" /><path
         d="m 1162.19,155.902 637.78,368.5"
         style="fill:none;stroke:#000000;stroke-width:28.346;stroke-linecap:butt;stroke-linejoin:miter;stroke-miterlimit:10;stroke-dasharray:none;stroke-opacity:1"
         id="path144" /><path
         d="m 1799.97,524.402 -62.99,-60.953 7.77,29.043 -29.05,7.774"
         style="fill:#000000;fill-opacity:1;fill-rule:evenodd;stroke:none"
         id="path146" /><path
         d="m 1799.97,524.402 -62.99,-60.953 7.77,29.043 -29.05,7.774 z"
         style="fill:none;stroke:#000000;stroke-width:28.346;stroke-linecap:butt;stroke-linejoin:miter;stroke-miterlimit:10;stroke-dasharray:none;stroke-opacity:1"
         id="path148" /><path
         d="m 226.77,1034.63 h 538.574 v 396.844 H 226.77 Z"
         style="fill:#e8e8ff;fill-opacity:1;fill-rule:evenodd;stroke:none"
         id="path150" /><path
         d="m 155.902,1105.49 h 680.305 v 255.117 H 155.902 Z"
         style="fill:#e8e8ff;fill-opacity:1;fill-rule:evenodd;stroke:none"
         id="path152" /><path
         d="m 226.77,1360.61 h -70.868 c 0,39.14 31.731,70.86 70.868,70.86"
         style="fill:#e8e8ff;fill-opacity:1;fill-rule:nonzero;stroke:none"
         id="path154" /><path
         d="m 155.902,1360.61 c 0,39.14 31.731,70.86 70.868,70.86"
         style="fill:none;stroke:#000000;stroke-width:28.346;stroke-linecap:butt;stroke-linejoin:round;stroke-miterlimit:10;stroke-dasharray:none;stroke-opacity:1"
         id="path156" /><path
         d="M 155.902,1360.61 V 1105.49"
         style="fill:none;stroke:#000000;stroke-width:28.346;stroke-linecap:butt;stroke-linejoin:round;stroke-miterlimit:10;stroke-dasharray:none;stroke-opacity:1"
         id="path158" /><path
         d="m 226.77,1105.49 v -70.86 c -39.137,0 -70.868,31.73 -70.868,70.86"
         style="fill:#e8e8ff;fill-opacity:1;fill-rule:nonzero;stroke:none"
         id="path160" /><path
         d="m 226.77,1034.63 c -39.137,0 -70.868,31.73 -70.868,70.86"
         style="fill:none;stroke:#000000;stroke-width:28.346;stroke-linecap:butt;stroke-linejoin:round;stroke-miterlimit:10;stroke-dasharray:none;stroke-opacity:1"
         id="path162" /><path
         d="M 226.77,1034.63 H 765.344"
         style="fill:none;stroke:#000000;stroke-width:28.346;stroke-linecap:butt;stroke-linejoin:round;stroke-miterlimit:10;stroke-dasharray:none;stroke-opacity:1"
         id="path164" /><path
         d="m 765.344,1105.49 h 70.863 c 0,-39.13 -31.727,-70.86 -70.863,-70.86"
         style="fill:#e8e8ff;fill-opacity:1;fill-rule:nonzero;stroke:none"
         id="path166" /><path
         d="m 836.207,1105.49 c 0,-39.13 -31.727,-70.86 -70.863,-70.86"
         style="fill:none;stroke:#000000;stroke-width:28.346;stroke-linecap:butt;stroke-linejoin:round;stroke-miterlimit:10;stroke-dasharray:none;stroke-opacity:1"
         id="path168" /><path
         d="m 836.207,1105.49 v 255.12"
         style="fill:none;stroke:#000000;stroke-width:28.346;stroke-linecap:butt;stroke-linejoin:round;stroke-miterlimit:10;stroke-dasharray:none;stroke-opacity:1"
         id="path170" /><path
         d="m 765.344,1360.61 v 70.86 c 39.136,0 70.863,-31.72 70.863,-70.86"
         style="fill:#e8e8ff;fill-opacity:1;fill-rule:nonzero;stroke:none"
         id="path172" /><path
         d="m 765.344,1431.47 c 39.136,0 70.863,-31.72 70.863,-70.86"
         style="fill:none;stroke:#000000;stroke-width:28.346;stroke-linecap:butt;stroke-linejoin:round;stroke-miterlimit:10;stroke-dasharray:none;stroke-opacity:1"
         id="path174" /><path
         d="M 765.344,1431.47 H 226.77"
         style="fill:none;stroke:#000000;stroke-width:28.346;stroke-linecap:butt;stroke-linejoin:round;stroke-miterlimit:10;stroke-dasharray:none;stroke-opacity:1"
         id="path176" /><path
         d="m 331.172,1328.61 v -25.81 c -10.266,4.74 -19.961,8.27 -29.078,10.59 -9.117,2.33 -17.918,3.49 -26.399,3.49 -14.765,0 -26.144,-2.9 -34.136,-8.69 -7.993,-5.77 -11.989,-13.99 -11.989,-24.68 0,-8.94 2.653,-15.71 7.953,-20.28 5.332,-4.54 15.415,-8.22 30.25,-11.03 l 16.356,-3.41 c 20.191,-3.89 35.09,-10.73 44.695,-20.54 9.606,-9.8 14.41,-22.91 14.41,-39.34 0,-19.6 -6.504,-34.46 -19.507,-44.58 -13.004,-10.12 -32.059,-15.18 -57.161,-15.18 -9.461,0 -19.531,0.99 -30.214,2.97 -10.684,1.98 -21.743,4.9 -33.184,8.76 v 28.16 c 11,-6.21 21.77,-10.89 32.305,-14.04 10.535,-3.16 20.898,-4.73 31.093,-4.73 15.473,0 27.403,3.1 35.786,9.31 8.41,6.21 12.613,15.06 12.613,26.55 0,10.02 -3.02,17.85 -9.059,23.5 -6.035,5.67 -15.937,9.92 -29.699,12.76 l -16.5,3.3 c -20.191,4.03 -34.797,10.35 -43.816,18.95 -9.02,8.63 -13.528,20.63 -13.528,35.98 0,17.79 6.231,31.8 18.7,42.02 12.464,10.24 29.648,15.36 51.55,15.36 9.364,0 18.91,-0.79 28.637,-2.35 9.754,-1.56 19.727,-3.91 29.922,-7.04"
         style="fill:#000000;fill-opacity:1;fill-rule:nonzero;stroke:none"
         id="path178" /><path
         d="m 387.84,1284.02 h 24.64 v -150.18 h -24.64 v 150.18 m 0,58.67 h 24.64 v -30.51 h -24.64 v 30.51"
         style="fill:#000000;fill-opacity:1;fill-rule:nonzero;stroke:none"
         id="path180" /><path
         d="m 466.781,1333.3 h 27.059 v -178.34 h 97.496 v -21.12 H 466.781 v 199.46"
         style="fill:#000000;fill-opacity:1;fill-rule:nonzero;stroke:none"
         id="path182" /><path
         d="m 605.301,1333.3 h 27.203 v -122.24 c 0,-21.56 3.887,-37.08 11.66,-46.57 7.774,-9.48 20.375,-14.22 37.805,-14.22 17.355,0 29.918,4.74 37.691,14.22 7.774,9.49 11.66,25.01 11.66,46.57 v 122.24 h 27.207 v -125.61 c 0,-25.92 -6.464,-45.48 -19.394,-58.71 -12.91,-13.22 -31.961,-19.83 -57.164,-19.83 -25.278,0 -44.379,6.61 -57.309,19.83 -12.906,13.23 -19.359,32.79 -19.359,58.71 v 125.61"
         style="fill:#000000;fill-opacity:1;fill-rule:nonzero;stroke:none"
         id="path184" /><path
         d="m 496.055,963.766 v 70.864"
         style="fill:none;stroke:#000000;stroke-width:28.346;stroke-linecap:butt;stroke-linejoin:round;stroke-miterlimit:10;stroke-dasharray:none;stroke-opacity:1"
         id="path186" /><path
         d="m 1264.84,1820.42 c 0,-46.97 -38.08,-85.04 -85.04,-85.04 -46.97,0 -85.04,38.07 -85.04,85.04 0,46.96 38.07,85.04 85.04,85.04 46.96,0 85.04,-38.08 85.04,-85.04"
         style="fill:#ffffff;fill-opacity:1;fill-rule:nonzero;stroke:none"
         id="path188" /><path
         d="m 1264.84,1820.42 c 0,-46.97 -38.08,-85.04 -85.04,-85.04 -46.97,0 -85.04,38.07 -85.04,85.04 0,46.96 38.07,85.04 85.04,85.04 46.96,0 85.04,-38.08 85.04,-85.04 z"
         style="fill:none;stroke:#000000;stroke-width:28.346;stroke-linecap:butt;stroke-linejoin:round;stroke-miterlimit:10;stroke-dasharray:none;stroke-opacity:1"
         id="path190" /><path
         d="m 1218.41,1850.62 -31.42,-31.65 31.42,-31.49 -8.21,-8.33 -31.54,31.65 -31.57,-31.65 -8.1,8.33 31.35,31.49 -31.35,31.65 8.1,8.32 31.57,-31.64 31.54,31.64 8.21,-8.32"
         style="fill:#000000;fill-opacity:1;fill-rule:nonzero;stroke:none"
         id="path192" /><path
         d="m 496.055,1431.47 566.925,311.81"
         style="fill:none;stroke:#000000;stroke-width:28.346;stroke-linecap:butt;stroke-linejoin:round;stroke-miterlimit:10;stroke-dasharray:none;stroke-opacity:1"
         id="path194" /><path
         d="m 1062.98,1743.28 -64.273,-59.61 8.383,28.87 -28.871,8.39"
         style="fill:#000000;fill-opacity:1;fill-rule:evenodd;stroke:none"
         id="path196" /><path
         d="m 1062.98,1743.28 -64.273,-59.61 8.383,28.87 -28.871,8.39 z"
         style="fill:none;stroke:#000000;stroke-width:28.346;stroke-linecap:butt;stroke-linejoin:miter;stroke-miterlimit:10;stroke-dasharray:none;stroke-opacity:1"
         id="path198" /><path
         d="m 765.344,2168.47 h 822.031 v 396.844 H 765.344 Z"
         style="fill:#f0ffe0;fill-opacity:1;fill-rule:evenodd;stroke:none"
         id="path200" /><path
         d="m 694.477,2239.34 h 963.766 v 255.113 H 694.477 Z"
         style="fill:#f0ffe0;fill-opacity:1;fill-rule:evenodd;stroke:none"
         id="path202" /><path
         d="m 765.344,2494.45 h -70.867 c 0,39.14 31.73,70.86 70.867,70.86"
         style="fill:#f0ffe0;fill-opacity:1;fill-rule:nonzero;stroke:none"
         id="path204" /><path
         d="m 694.477,2494.45 c 0,39.14 31.73,70.86 70.867,70.86"
         style="fill:none;stroke:#000000;stroke-width:28.346;stroke-linecap:butt;stroke-linejoin:round;stroke-miterlimit:10;stroke-dasharray:none;stroke-opacity:1"
         id="path206" /><path
         d="M 694.477,2494.45 V 2239.34"
         style="fill:none;stroke:#000000;stroke-width:28.346;stroke-linecap:butt;stroke-linejoin:round;stroke-miterlimit:10;stroke-dasharray:none;stroke-opacity:1"
         id="path208" /><path
         d="m 765.344,2239.34 v -70.87 c -39.137,0 -70.867,31.73 -70.867,70.87"
         style="fill:#f0ffe0;fill-opacity:1;fill-rule:nonzero;stroke:none"
         id="path210" /><path
         d="m 765.344,2168.47 c -39.137,0 -70.867,31.73 -70.867,70.87"
         style="fill:none;stroke:#000000;stroke-width:28.346;stroke-linecap:butt;stroke-linejoin:round;stroke-miterlimit:10;stroke-dasharray:none;stroke-opacity:1"
         id="path212" /><path
         d="M 765.344,2168.47 H 1587.38"
         style="fill:none;stroke:#000000;stroke-width:28.346;stroke-linecap:butt;stroke-linejoin:round;stroke-miterlimit:10;stroke-dasharray:none;stroke-opacity:1"
         id="path214" /><path
         d="m 1587.38,2239.34 h 70.86 c 0,-39.14 -31.73,-70.87 -70.86,-70.87"
         style="fill:#f0ffe0;fill-opacity:1;fill-rule:nonzero;stroke:none"
         id="path216" /><path
         d="m 1658.24,2239.34 c 0,-39.14 -31.73,-70.87 -70.86,-70.87"
         style="fill:none;stroke:#000000;stroke-width:28.346;stroke-linecap:butt;stroke-linejoin:round;stroke-miterlimit:10;stroke-dasharray:none;stroke-opacity:1"
         id="path218" /><path
         d="m 1658.24,2239.34 v 255.11"
         style="fill:none;stroke:#000000;stroke-width:28.346;stroke-linecap:butt;stroke-linejoin:round;stroke-miterlimit:10;stroke-dasharray:none;stroke-opacity:1"
         id="path220" /><path
         d="m 1587.38,2494.45 v 70.86 c 39.13,0 70.86,-31.72 70.86,-70.86"
         style="fill:#f0ffe0;fill-opacity:1;fill-rule:nonzero;stroke:none"
         id="path222" /><path
         d="m 1587.38,2565.31 c 39.13,0 70.86,-31.72 70.86,-70.86"
         style="fill:none;stroke:#000000;stroke-width:28.346;stroke-linecap:butt;stroke-linejoin:round;stroke-miterlimit:10;stroke-dasharray:none;stroke-opacity:1"
         id="path224" /><path
         d="M 1587.38,2565.31 H 765.344"
         style="fill:none;stroke:#000000;stroke-width:28.346;stroke-linecap:butt;stroke-linejoin:round;stroke-miterlimit:10;stroke-dasharray:none;stroke-opacity:1"
         id="path226" /><path
         d="m 749.773,2467.14 h 27.059 V 2288.8 h 97.496 v -21.12 H 749.773 v 199.46"
         style="fill:#000000;fill-opacity:1;fill-rule:nonzero;stroke:none"
         id="path228" /><path
         d="m 904.465,2417.87 h 24.64 v -150.19 h -24.64 v 150.19 m 0,58.66 h 24.64 v -30.51 h -24.64 v 30.51"
         style="fill:#000000;fill-opacity:1;fill-rule:nonzero;stroke:none"
         id="path230" /><path
         d="m 1107.15,2359.89 v -92.21 h -24.67 v 91.41 c 0,14.15 -2.78,24.75 -8.32,31.79 -5.55,7.04 -13.87,10.56 -24.94,10.56 -13.32,0 -23.83,-4.24 -31.53,-12.73 -7.68,-8.48 -11.51,-20.04 -11.51,-34.68 v -86.35 h -24.789 v 150.19 h 24.789 v -21.12 c 5.89,8.65 12.83,15.11 20.82,19.39 8.02,4.28 17.26,6.42 27.72,6.42 17.26,0 30.31,-5.31 39.16,-15.92 8.85,-10.58 13.27,-26.16 13.27,-46.75"
         style="fill:#000000;fill-opacity:1;fill-rule:nonzero;stroke:none"
         id="path232" /><path
         d="m 1287.75,2349.81 v -11.73 h -113.41 c 1.07,-17.58 6.18,-30.97 15.32,-40.19 9.17,-9.19 21.94,-13.78 38.32,-13.78 9.46,0 18.64,1.17 27.54,3.52 8.89,2.34 17.72,5.86 26.47,10.56 v -23.47 c -8.85,-3.81 -17.92,-6.72 -27.21,-8.73 -9.29,-2 -18.72,-3 -28.3,-3 -23.96,0 -42.93,7.05 -56.91,21.15 -13.98,14.13 -20.97,33.22 -20.97,57.28 0,24.88 6.63,44.62 19.91,59.21 13.27,14.62 31.16,21.93 53.68,21.93 20.19,0 36.16,-6.53 47.92,-19.58 11.76,-13.03 17.64,-30.75 17.64,-53.17 m -24.64,7.04 c -0.18,13.57 -3.95,24.38 -11.33,32.45 -7.39,8.09 -17.15,12.14 -29.3,12.14 -13.76,0 -24.79,-3.91 -33.07,-11.73 -8.27,-7.8 -13.02,-18.8 -14.27,-33 l 87.97,0.14"
         style="fill:#000000;fill-opacity:1;fill-rule:nonzero;stroke:none"
         id="path234" /><path
         d="m 1399.62,2342.77 c -19.95,0 -33.77,-2.28 -41.48,-6.85 -7.67,-4.55 -11.51,-12.31 -11.51,-23.29 0,-8.75 2.89,-15.69 8.66,-20.82 5.76,-5.14 13.61,-7.7 23.53,-7.7 13.67,0 24.63,4.82 32.89,14.48 8.29,9.66 12.43,22.5 12.43,38.54 v 5.64 h -24.52 m 49.2,9.9 v -84.99 h -24.68 v 21.12 c -5.62,-8.82 -12.63,-15.34 -21.04,-19.54 -8.41,-4.18 -18.69,-6.27 -30.84,-6.27 -15.37,0 -27.6,4.3 -36.66,12.9 -9.07,8.63 -13.61,20.18 -13.61,34.65 0,16.87 5.65,29.58 16.94,38.14 11.32,8.58 28.19,12.87 50.6,12.87 h 34.61 v 2.64 c 0,11.85 -3.73,21.02 -11.21,27.5 -7.46,6.5 -17.93,9.75 -31.43,9.75 -8.58,0 -16.94,-0.98 -25.08,-2.94 -8.11,-1.95 -15.92,-4.88 -23.43,-8.79 v 23.46 c 9.02,3.13 17.78,5.48 26.26,7.04 8.5,1.57 16.78,2.35 24.82,2.35 21.73,0 37.95,-5.78 48.66,-17.35 10.73,-11.53 16.09,-29.05 16.09,-52.54"
         style="fill:#000000;fill-opacity:1;fill-rule:nonzero;stroke:none"
         id="path236" /><path
         d="m 1589.72,2394.4 c -2.76,2.42 -5.78,4.19 -9.06,5.31 -3.25,1.15 -6.84,1.73 -10.77,1.73 -13.96,0 -24.68,-4.6 -32.16,-13.79 -7.46,-9.17 -11.18,-22.33 -11.18,-39.49 v -80.48 h -24.79 v 150.19 h 24.79 v -21.12 c 5.18,8.72 11.92,15.2 20.24,19.43 8.33,4.25 18.44,6.38 30.32,6.38 1.71,0 3.59,-0.2 5.64,-0.59 2.06,-0.39 4.33,-0.97 6.82,-1.76 l 0.15,-25.81"
         style="fill:#000000;fill-opacity:1;fill-rule:nonzero;stroke:none"
         id="path238" /><path
         d="m 1179.8,1905.46 -3.44,206.32"
         style="fill:none;stroke:#000000;stroke-width:28.346;stroke-linecap:butt;stroke-linejoin:round;stroke-miterlimit:10;stroke-dasharray:none;stroke-opacity:1"
         id="path240" /><path
         d="m 1176.36,2111.78 22.67,-84.67 -21.61,20.9 -20.9,-21.61"
         style="fill:#000000;fill-opacity:1;fill-rule:evenodd;stroke:none"
         id="path242" /><path
         d="m 1176.36,2111.78 22.67,-84.67 -21.61,20.9 -20.9,-21.61 z"
         style="fill:none;stroke:#000000;stroke-width:28.346;stroke-linecap:butt;stroke-linejoin:miter;stroke-miterlimit:10;stroke-dasharray:none;stroke-opacity:1"
         id="path244" /><path
         d="m 1176.36,2565.31 -3.44,206.32"
         style="fill:none;stroke:#000000;stroke-width:28.346;stroke-linecap:butt;stroke-linejoin:miter;stroke-miterlimit:10;stroke-dasharray:none;stroke-opacity:1"
         id="path246" /><path
         d="m 1172.92,2771.63 22.67,-84.67 -21.61,20.9 -20.9,-21.61"
         style="fill:#000000;fill-opacity:1;fill-rule:evenodd;stroke:none"
         id="path248" /><path
         d="m 1172.92,2771.63 22.67,-84.67 -21.61,20.9 -20.9,-21.61 z"
         style="fill:none;stroke:#000000;stroke-width:28.346;stroke-linecap:butt;stroke-linejoin:miter;stroke-miterlimit:10;stroke-dasharray:none;stroke-opacity:1"
         id="path250" /></g></g></svg>
